# File created by Blade
# Date/Time:  Thu Jan 22 16:25:48 2015
# Frame Rate: 120.000 fps
#------------------------------------------------------
:FULLY-SPECIFIED
:DEGREES
710
root 3.703112 39.774454 8.495262 60.937442 13.770637 48.020393
RightUpLeg -30.936507 -22.268076 -41.578531
RightLeg -8.810823 -0.000000 0.000000
RightFoot -4.330276 -23.406986 15.379580
RightToeBase 13.675395 -0.000000 -0.000000
LeftUpLeg 11.141518 -22.009974 13.276961
LeftLeg 137.486125 -0.000000 -0.000000
LeftFoot 19.463825 15.557788 -29.834099
LeftToeBase 2.699242 -0.000000 -0.000000
Spine 15.395240 -5.793759 -6.709906
RightShoulder -14.888153 -5.171350 -47.958238
RightArm 57.523886 66.244660 30.321905
RightForeArm -0.657356 -0.000000 11.643221
RightHand 8.028195 -0.000000 -11.726633
RightHandThumb1 -24.326973 -0.000000 -32.862282
LeftShoulder -33.284685 35.567250 -13.942329
LeftArm 24.154213 -21.811620 -85.339948
LeftForeArm 48.469771 0.000000 10.452281
LeftHand -16.766179 -0.000000 -16.487483
LeftHandThumb1 -26.253704 0.000000 33.147579
Head -15.955146 -20.983285 -15.642779
711
root 3.711405 39.771961 8.494952 60.999265 13.794990 48.043925
RightUpLeg -30.860643 -21.987394 -41.803248
RightLeg -8.810886 -0.000000 0.000000
RightFoot -4.333704 -23.833680 15.132244
RightToeBase 13.553846 -0.000000 -0.000000
LeftUpLeg 11.204335 -22.261936 13.247335
LeftLeg 137.386829 -0.000000 -0.000000
LeftFoot 19.470170 15.630729 -29.885914
LeftToeBase 2.718143 -0.000000 -0.000000
Spine 15.368226 -5.851424 -6.682348
RightShoulder -14.911232 -5.204194 -47.937832
RightArm 57.666150 66.283925 30.496069
RightForeArm -0.634412 0.000000 11.625836
RightHand 7.937436 -0.000000 -11.628699
RightHandThumb1 -24.326973 -0.000000 -32.862282
LeftShoulder -33.301500 35.587297 -13.952385
LeftArm 24.183617 -21.885266 -85.289234
LeftForeArm 48.662503 -0.000000 10.512061
LeftHand -16.873812 -0.000000 -16.472847
LeftHandThumb1 -26.253704 0.000000 33.147579
Head -15.950025 -21.012389 -15.605324
712
root 3.718635 39.771470 8.493764 61.079448 13.825871 48.083723
RightUpLeg -30.803015 -21.732111 -42.030236
RightLeg -8.774944 -0.000000 0.000000
RightFoot -4.339943 -24.250204 14.901734
RightToeBase 13.347524 -0.000000 -0.000000
LeftUpLeg 11.253164 -22.555532 13.201846
LeftLeg 137.315857 -0.000000 -0.000000
LeftFoot 19.447607 15.658502 -29.897174
LeftToeBase 2.701591 -0.000000 -0.000000
Spine 15.330131 -5.948992 -6.657312
RightShoulder -14.920019 -5.243466 -47.919032
RightArm 57.942492 66.368358 30.834620
RightForeArm -0.655449 -0.000000 11.630049
RightHand 8.044677 -0.000000 -11.612281
RightHandThumb1 -24.326973 -0.000000 -32.862282
LeftShoulder -33.320639 35.572971 -13.952349
LeftArm 24.188415 -21.941004 -85.219319
LeftForeArm 48.872039 -0.000000 10.545570
LeftHand -16.864249 0.000000 -16.514046
LeftHandThumb1 -26.253704 0.000000 33.147579
Head -15.948685 -21.051906 -15.583981
713
root 3.724286 39.771721 8.492047 61.169193 13.861367 48.106424
RightUpLeg -30.791092 -21.473224 -42.227821
RightLeg -8.705784 -0.000000 0.000000
RightFoot -4.358810 -24.680004 14.658549
RightToeBase 13.164447 -0.000000 -0.000000
LeftUpLeg 11.285905 -22.836676 13.169196
LeftLeg 137.238406 -0.000000 -0.000000
LeftFoot 19.413405 15.744965 -29.902830
LeftToeBase 2.839729 -0.000000 -0.000000
Spine 15.276513 -6.022566 -6.608018
RightShoulder -14.936330 -5.288362 -47.922793
RightArm 58.245232 66.452493 31.214795
RightForeArm -0.670316 -0.000000 11.608786
RightHand 7.915845 0.000000 -11.684715
RightHandThumb1 -24.326973 -0.000000 -32.862282
LeftShoulder -33.335360 35.581013 -13.956689
LeftArm 24.234214 -21.964130 -85.149447
LeftForeArm 49.108341 -0.000000 10.558743
LeftHand -16.954665 -0.000000 -16.438920
LeftHandThumb1 -26.253704 0.000000 33.147579
Head -15.957568 -21.073229 -15.577973
714
root 3.729491 39.773476 8.489267 61.277440 13.910307 48.138182
RightUpLeg -30.808515 -21.329069 -42.354150
RightLeg -8.628325 -0.000000 0.000000
RightFoot -4.375168 -24.993570 14.460317
RightToeBase 13.025216 -0.000000 -0.000000
LeftUpLeg 11.288668 -23.148430 13.146652
LeftLeg 137.170516 -0.000000 -0.000000
LeftFoot 19.419765 15.817147 -29.862708
LeftToeBase 2.734313 -0.000000 -0.000000
Spine 15.204248 -6.108167 -6.546907
RightShoulder -14.946741 -5.289059 -47.924541
RightArm 57.995238 66.394218 30.998758
RightForeArm -0.637690 -0.000000 11.619259
RightHand 7.745409 -0.000000 -11.409878
RightHandThumb1 -24.326973 -0.000000 -32.862282
LeftShoulder -33.348686 35.588125 -13.965343
LeftArm 24.282559 -21.929974 -85.044783
LeftForeArm 49.308397 -0.000000 10.575224
LeftHand -17.030644 0.000000 -16.467623
LeftHandThumb1 -26.253704 0.000000 33.147579
Head -15.954266 -21.149686 -15.582024
